<svg width="82" height="46" viewBox="0 0 82 46" fill="none" xmlns="http://www.w3.org/2000/svg">
<g id="player-vs-cpu">
<circle id="Oval Copy 20" cx="59" cy="23" r="23" fill="white"/>
<g id="Group 2">
<circle id="Oval Copy 11" cx="59" cy="23" r="20" fill="#FD6687"/>
<g id="Group 8">
<g id="Group 7">
<g id="Group 9">
<g id="Group 10">
<path id="Path Copy" d="M66.083 14.4165V17.4165H61.083V14.4165H66.083Z" fill="white"/>
<path id="Path Copy 2" d="M56.917 14.4165V17.4165H51.917V14.4165H56.917Z" fill="white"/>
<path id="Path 2" d="M69 20.25V23.25H49V20.25H69Z" fill="white"/>
</g>
</g>
</g>
</g>
</g>
<circle id="Oval Copy 19" cx="23" cy="23" r="23" fill="white"/>
<g id="Group">
<circle id="Oval Copy 11_2" cx="23" cy="23" r="20" fill="#FD6687"/>
<g id="Group 8_2">
<path id="Oval Copy 11_3" d="M35.25 21.208C35.25 27.5593 30.1013 32.708 23.75 32.708C17.3987 32.708 12.25 27.5593 12.25 21.208H15.25C15.25 25.9024 19.0556 29.708 23.75 29.708C28.4444 29.708 32.25 25.9024 32.25 21.208H35.25Z" fill="white"/>
<g id="Group 7_2">
<path id="Path" d="M20.542 14.6665V19.6535H17.542V14.6665H20.542Z" fill="white"/>
<path id="Path Copy_2" d="M28.875 14.6665V19.6535H25.875V14.6665H28.875Z" fill="white"/>
</g>
</g>
</g>
</g>
</svg>
